<?xml version="1.0" standalone="no"?>
<!DOCTYPE svg PUBLIC "-//W3C//DTD SVG 20010904//EN"
 "http://www.w3.org/TR/2001/REC-SVG-20010904/DTD/svg10.dtd">
<svg version="1.0" xmlns="http://www.w3.org/2000/svg"
 width="450.000000pt" height="450.000000pt" viewBox="0 0 450.000000 450.000000"
 preserveAspectRatio="xMidYMid meet">
<metadata>
Created by potrace 1.14, written by Peter Selinger 2001-2017
</metadata>
<g transform="translate(0.000000,450.000000) scale(0.100000,-0.100000)"
fill="#000000" stroke="none">
<path d="M370 3771 c-116 -36 -192 -146 -226 -326 -20 -113 -15 -169 37 -385
57 -236 232 -775 369 -1134 l41 -109 -16 -121 c-9 -66 -27 -202 -40 -301 -13
-99 -40 -304 -60 -455 -20 -151 -38 -287 -41 -302 -5 -27 -4 -28 40 -28 25 0
46 3 46 8 0 4 9 77 20 162 11 85 36 274 55 420 141 1100 196 1417 284 1641 76
194 199 385 340 525 147 148 311 241 520 297 113 30 121 31 346 32 190 0 244
-3 310 -19 283 -66 457 -157 630 -331 90 -89 152 -177 220 -313 48 -93 60
-150 15 -70 -104 186 -258 369 -372 441 -99 62 -158 90 -158 72 0 -12 -5 -13
-26 -5 l-26 10 31 -35 31 -36 -21 -28 c-11 -16 -40 -38 -64 -50 l-42 -21 8
-47 c8 -38 6 -49 -6 -56 -9 -4 -13 -12 -10 -16 2 -5 -6 -7 -20 -6 -18 3 -26
-3 -34 -26 -5 -16 -17 -32 -26 -35 -18 -7 -20 -35 -2 -53 10 -11 8 -11 -10 -2
-96 49 -193 -52 -193 -202 0 -108 58 -171 157 -169 24 0 43 -4 43 -8 0 -5 6
-15 14 -23 8 -8 12 -24 9 -40 -6 -28 -19 -36 -26 -14 -2 6 -2 2 0 -10 2 -14
-2 -23 -9 -23 -10 0 -10 -2 0 -9 10 -6 9 -10 -7 -14 -13 -3 -21 -13 -21 -26 0
-26 -22 -36 -47 -23 -13 8 -22 4 -40 -16 -29 -34 -29 -37 3 -96 34 -64 74
-225 74 -301 0 -59 -38 -247 -49 -241 -3 2 -7 -22 -8 -53 0 -31 -6 -69 -12
-85 -10 -25 -13 -27 -29 -15 -14 11 -15 11 -4 -1 14 -17 16 -34 2 -25 -5 3 -8
0 -5 -7 3 -7 -5 -24 -16 -38 -11 -14 -17 -18 -13 -10 4 9 3 12 -2 7 -5 -5 -9
-16 -9 -25 0 -9 -6 -16 -13 -14 -8 1 -11 -2 -8 -7 10 -15 -98 -124 -171 -173
-127 -85 -169 -101 -303 -117 -69 -9 -149 -4 -257 14 -41 7 -43 6 -43 -16 0
-37 26 -66 83 -97 46 -23 63 -27 137 -26 47 1 94 3 105 5 15 3 21 -2 23 -20 2
-13 7 -20 10 -14 5 7 16 7 32 1 20 -7 22 -11 10 -19 -12 -9 -10 -10 7 -6 14 3
29 -3 40 -15 13 -15 26 -19 50 -15 22 4 31 2 29 -6 -2 -7 -12 -50 -22 -97 -9
-47 -18 -86 -19 -88 -1 -1 -14 4 -29 12 -25 13 -29 12 -52 -11 -18 -18 -32
-56 -54 -148 -17 -69 -30 -127 -30 -130 0 -3 328 -5 729 -5 686 0 730 1 735
18 2 9 17 109 31 222 44 343 75 574 80 595 2 11 41 47 85 79 72 53 152 138
247 261 94 123 312 541 408 785 131 332 189 526 183 611 -10 134 -120 170
-324 105 -168 -53 -298 -187 -463 -476 -40 -69 -75 -128 -80 -133 -5 -5 -14
15 -21 45 -32 142 -115 337 -200 468 -132 204 -308 357 -525 459 -202 95 -466
141 -735 127 -467 -23 -811 -230 -1064 -640 l-60 -96 -62 152 c-157 388 -192
456 -269 526 -56 53 -116 71 -175 53z m118 -101 c51 -36 109 -151 207 -404 50
-131 65 -181 65 -222 0 -47 -2 -52 -19 -47 -17 4 -20 -1 -23 -34 -3 -33 -7
-38 -29 -41 -33 -4 -85 47 -130 125 -17 29 -35 53 -40 53 -5 0 -8 3 -8 8 1 4
1 14 0 22 -1 12 -3 13 -10 1 -14 -21 -32 14 -112 214 -40 99 -76 186 -82 193
-14 18 -36 -5 -59 -61 l-17 -42 6 45 c3 25 18 70 33 100 59 117 137 149 218
90z m3768 -456 c10 -13 13 -33 10 -67 -13 -120 -188 -588 -328 -873 -63 -128
-220 -399 -255 -440 -13 -16 -2 7 25 51 175 287 331 623 431 928 33 97 33 97
15 142 l-17 45 -33 -53 c-37 -57 -34 -60 -37 36 -1 15 -4 27 -8 27 -4 0 -12
14 -18 30 -10 31 -17 34 -61 30 -26 -2 -70 -36 -70 -53 0 -6 3 -7 6 -4 4 3 16
1 27 -4 17 -10 19 -18 14 -61 -7 -53 -81 -230 -155 -368 -142 -265 -343 -540
-395 -540 -58 1 -52 82 17 243 9 20 14 37 12 37 -2 0 -39 -61 -81 -135 -43
-74 -79 -135 -81 -135 -8 0 106 241 190 405 210 404 290 529 414 646 73 70
122 98 217 125 66 18 141 13 161 -12z m-1786 -201 c0 -4 -15 -23 -34 -43 -18
-19 -39 -48 -45 -65 -10 -28 -11 -26 -7 20 3 38 10 55 31 72 25 22 55 31 55
16z m-83 -205 c-3 -8 -6 -5 -6 6 -1 11 2 17 5 13 3 -3 4 -12 1 -19z"/>
<path d="M4048 3108 c-21 -6 -38 -15 -38 -20 0 -6 10 -8 23 -4 12 3 32 6 45 6
13 0 22 6 22 15 0 17 0 17 -52 3z"/>
<path d="M1273 3250 c-24 -26 -43 -51 -43 -54 0 -3 13 -6 28 -6 20 0 32 8 44
28 8 15 13 33 11 40 -3 7 1 19 7 27 7 8 9 15 4 15 -5 -1 -28 -23 -51 -50z"/>
<path d="M1344 3192 c-44 -36 -66 -82 -75 -157 -16 -123 23 -175 129 -175 70
0 122 85 122 197 0 108 -108 191 -176 135z m39 -67 c-17 -14 -37 -42 -44 -63
-16 -48 -24 -26 -9 27 11 42 31 60 65 61 17 0 15 -4 -12 -25z"/>
<path d="M1611 2684 c-168 -36 -316 -161 -366 -309 -52 -155 -70 -300 -55
-435 35 -311 146 -474 369 -544 186 -58 378 -36 545 62 60 35 162 129 204 187
15 20 20 23 16 10 -5 -16 -4 -17 4 -5 6 8 9 17 6 21 -2 5 10 31 27 59 17 28
32 63 33 78 2 15 10 61 19 102 9 41 19 120 23 175 6 85 3 113 -16 190 -12 50
-36 116 -53 148 -61 117 -224 231 -372 262 -88 18 -298 18 -384 -1z"/>
<path d="M821 1424 c0 -11 3 -14 6 -6 3 7 2 16 -1 19 -3 4 -6 -2 -5 -13z"/>
<path d="M876 1425 c4 -8 8 -15 10 -15 2 0 4 7 4 15 0 8 -4 15 -10 15 -5 0 -7
-7 -4 -15z"/>
<path d="M783 1387 c0 -21 4 -33 8 -26 4 6 11 9 16 6 5 -3 9 4 10 16 0 12 -1
16 -4 10 -7 -20 -21 -15 -26 10 -2 12 -4 5 -4 -16z"/>
<path d="M702 1370 c0 -14 2 -19 5 -12 2 6 2 18 0 25 -3 6 -5 1 -5 -13z"/>
<path d="M940 1346 c0 -19 -5 -24 -20 -23 -12 1 -20 8 -20 19 0 26 -20 22 -21
-4 -1 -17 -2 -19 -6 -5 -5 19 -23 24 -23 6 0 -6 -8 -9 -17 -7 -16 4 -18 -2
-15 -56 2 -40 0 -56 -6 -47 -17 24 -29 3 -43 -76 -7 -43 -15 -70 -17 -60 -5
24 -22 22 -22 -3 0 -11 4 -20 9 -20 5 0 11 -14 13 -30 3 -21 1 -27 -6 -20 -14
14 -26 12 -26 -5 0 -8 5 -15 10 -15 6 0 10 -7 10 -15 0 -8 -4 -15 -9 -15 -15
0 -22 -33 -9 -42 8 -5 9 -8 2 -8 -7 0 -15 -25 -19 -57 -3 -32 -11 -76 -17 -98
-5 -21 -12 -61 -14 -88 -2 -27 -7 -53 -10 -58 -3 -5 62 -9 149 -9 l155 0 10
43 c30 122 41 344 16 354 -10 4 -14 23 -14 74 0 39 -4 69 -10 69 -5 0 -10 7
-10 16 0 9 5 12 13 8 8 -5 8 -2 -2 9 -11 14 -11 17 0 17 9 1 5 8 -10 20 -19
17 -21 21 -7 26 9 3 16 13 16 21 0 13 -2 13 -16 2 -16 -13 -16 -9 -10 44 4 31
5 57 2 57 -3 0 -6 -11 -6 -24z m60 -360 c0 -3 -4 -8 -10 -11 -5 -3 -10 -1 -10
4 0 6 5 11 10 11 6 0 10 -2 10 -4z"/>
<path d="M686 1273 c-15 -76 -37 -235 -34 -251 2 -9 13 48 25 128 12 79 20
146 18 148 -1 2 -6 -9 -9 -25z"/>
<path d="M621 799 c-7 -45 -10 -83 -8 -85 5 -5 13 33 23 114 10 83 -1 60 -15
-29z"/>
<path d="M1720 760 c34 -11 60 -11 35 0 -11 5 -29 8 -40 8 -16 0 -15 -2 5 -8z"/>
<path d="M1681 694 c0 -11 3 -14 6 -6 3 7 2 16 -1 19 -3 4 -6 -2 -5 -13z"/>
<path d="M602 670 c0 -14 2 -19 5 -12 2 6 2 18 0 25 -3 6 -5 1 -5 -13z"/>
<path d="M1820 630 c0 -5 5 -10 10 -10 6 0 10 5 10 10 0 6 -4 10 -10 10 -5 0
-10 -4 -10 -10z"/>
</g>
</svg>
